<svg width="649" height="650" xmlns="http://www.w3.org/2000/svg" xmlns:xlink="http://www.w3.org/1999/xlink" xml:space="preserve" overflow="hidden"><defs><clipPath id="clip0"><rect x="228" y="1446" width="649" height="650"/></clipPath></defs><g clip-path="url(#clip0)" transform="translate(-228 -1446)"><rect x="585" y="1675" width="260" height="163" stroke="#000000" stroke-width="27.5" stroke-linecap="round" stroke-linejoin="round" stroke-miterlimit="10" fill="#FFFFFF" fill-opacity="0.101961"/><rect x="585" y="1891" width="260" height="162" stroke="#000000" stroke-width="27.5" stroke-linecap="round" stroke-linejoin="round" stroke-miterlimit="10" fill="#FFFFFF" fill-opacity="0.101961"/><rect x="258" y="1483" width="259" height="162" stroke="#000000" stroke-width="27.5" stroke-linecap="round" stroke-linejoin="round" stroke-miterlimit="10" fill="#FFFFFF" fill-opacity="0.101961"/><path d="M385 1662 385 1902.7" stroke="#000000" stroke-width="27.5" stroke-linecap="round" stroke-linejoin="round" stroke-miterlimit="10" fill="#FFFFFF" fill-rule="evenodd" fill-opacity="0.101961"/><path d="M580.5 1984C473.633 1984 387 1947.51 387 1902.5L580.5 1902.5Z" fill="#FFFFFF" fill-rule="evenodd" fill-opacity="0.101961"/><path d="M580.5 1984C473.633 1984 387 1947.51 387 1902.5" stroke="#000000" stroke-width="27.5" stroke-linecap="round" stroke-linejoin="round" stroke-miterlimit="10" fill="none" fill-rule="evenodd"/><path d="M578 1768C471.409 1768 385 1731.73 385 1687L578 1687Z" fill="#FFFFFF" fill-rule="evenodd" fill-opacity="0.101961"/><path d="M578 1768C471.409 1768 385 1731.73 385 1687" stroke="#000000" stroke-width="27.5" stroke-linecap="round" stroke-linejoin="round" stroke-miterlimit="10" fill="none" fill-rule="evenodd"/></g></svg>