<svg width="486" height="418" xmlns="http://www.w3.org/2000/svg" xmlns:xlink="http://www.w3.org/1999/xlink" xml:space="preserve" overflow="hidden"><defs><clipPath id="clip0"><rect x="1957" y="782" width="486" height="418"/></clipPath></defs><g clip-path="url(#clip0)" transform="translate(-1957 -782)"><path d="M2005 991C2005 883.305 2092.3 796 2200 796 2307.7 796 2395 883.305 2395 991 2395 1098.7 2307.7 1186 2200 1186 2092.3 1186 2005 1098.7 2005 991Z" fill="#FFFFFF" fill-rule="evenodd" fill-opacity="0.101961"/><path d="M2062.11 853.114 2337.89 1128.89M2337.89 853.114 2062.11 1128.89" stroke="#000000" stroke-width="27.5" stroke-linecap="round" stroke-linejoin="round" stroke-miterlimit="10" fill="none" fill-rule="evenodd"/><path d="M2005 991C2005 883.305 2092.3 796 2200 796 2307.7 796 2395 883.305 2395 991 2395 1098.7 2307.7 1186 2200 1186 2092.3 1186 2005 1098.7 2005 991Z" stroke="#000000" stroke-width="27.5" stroke-linecap="round" stroke-linejoin="round" stroke-miterlimit="10" fill="none" fill-rule="evenodd"/><text font-family="Arial,Arial_MSFontService,sans-serif" font-weight="700" font-size="147" transform="matrix(1 0 0 1 2045.31 1045)">NOT</text></g></svg>